# xmcd
#
# Track frame offsets: 
#        150
#        16785
#        33064
#        49271
#        65971
#        80009
#        98411
#        112601
#        125150
#        136907
#        150834
#        161216
#        174503
#        189797
#        207167
#
# Disc length: 3146 seconds
#
# Revision: 0
# Processed by: cddbd v1.5.2PL0 Copyright (c) Steve Scherf et al.
# Submitted via: ExactAudioCopy v0.95b3
#
DISCID=b60c480f
DTITLE=Robbie Laws - Deep Ellum Blues
DYEAR=2003
DGENRE=Blues
TTITLE0=Sweet Potato 2
TTITLE1=Bar Room Boogie
TTITLE2=T-Bone Boogie
TTITLE3=Deep Ellum Blues
TTITLE4=Bad Case Of The Blues
TTITLE5=Groove My World
TTITLE6=Why Not
TTITLE7=Sweet Alice Blues
TTITLE8=The Hucklebuck
TTITLE9=Cry My Eyes Out
TTITLE10=Okie Dokie Stomp
TTITLE11=King's Thang
TTITLE12=When Lightening Strikes
TTITLE13=Ice Pickin'
TTITLE14=Sweet Talkin'
EXTD=
EXTT0=
EXTT1=
EXTT2=
EXTT3=
EXTT4=
EXTT5=
EXTT6=
EXTT7=
EXTT8=
EXTT9=
EXTT10=
EXTT11=
EXTT12=
EXTT13=
EXTT14=
PLAYORDER=
